<mxfile host="app.diagrams.net" modified="2021-01-12T11:42:29.706Z" agent="5.0 (Macintosh)" etag="8g3FOwYIqy0Hm4UMJT4Q" version="14.1.9" type="github">
  <diagram id="UeQTDkwv5za3803A1B4S" name="Page-1">
    <mxGraphModel dx="897" dy="572" grid="1" gridSize="10" guides="1" tooltips="1" connect="1" arrows="1" fold="1" page="1" pageScale="1" pageWidth="850" pageHeight="1100" math="0" shadow="0">
      <root>
        <mxCell id="0" />
        <mxCell id="1" parent="0" />
        <mxCell id="Ybsti9bT6PNA4Oe1Zu98-1" value="" style="shape=actor;whiteSpace=wrap;html=1;fillColor=#d5e8d4;strokeColor=#82b366;" vertex="1" parent="1">
          <mxGeometry x="280" y="210" width="40" height="60" as="geometry" />
        </mxCell>
        <mxCell id="Ybsti9bT6PNA4Oe1Zu98-2" value="" style="shape=actor;whiteSpace=wrap;html=1;fillColor=#fff2cc;strokeColor=#d6b656;" vertex="1" parent="1">
          <mxGeometry x="290" y="240" width="40" height="50" as="geometry" />
        </mxCell>
        <mxCell id="Ybsti9bT6PNA4Oe1Zu98-3" value="" style="shape=actor;whiteSpace=wrap;html=1;fillColor=#d5e8d4;strokeColor=#82b366;" vertex="1" parent="1">
          <mxGeometry x="260" y="230" width="40" height="60" as="geometry" />
        </mxCell>
        <mxCell id="Ybsti9bT6PNA4Oe1Zu98-10" value="" style="shape=actor;whiteSpace=wrap;html=1;fillColor=#e1d5e7;strokeColor=#9673a6;" vertex="1" parent="1">
          <mxGeometry x="640" y="210" width="40" height="60" as="geometry" />
        </mxCell>
        <mxCell id="Ybsti9bT6PNA4Oe1Zu98-11" value="" style="shape=actor;whiteSpace=wrap;html=1;fillColor=#f8cecc;strokeColor=#b85450;" vertex="1" parent="1">
          <mxGeometry x="650" y="240" width="40" height="50" as="geometry" />
        </mxCell>
        <mxCell id="Ybsti9bT6PNA4Oe1Zu98-12" value="" style="shape=actor;whiteSpace=wrap;html=1;fillColor=#fff2cc;strokeColor=#d6b656;" vertex="1" parent="1">
          <mxGeometry x="620" y="230" width="40" height="60" as="geometry" />
        </mxCell>
        <mxCell id="Ybsti9bT6PNA4Oe1Zu98-16" value="" style="endArrow=classic;startArrow=classic;html=1;" edge="1" parent="1">
          <mxGeometry width="50" height="50" relative="1" as="geometry">
            <mxPoint x="420" y="360" as="sourcePoint" />
            <mxPoint x="300" y="300" as="targetPoint" />
          </mxGeometry>
        </mxCell>
        <mxCell id="Ybsti9bT6PNA4Oe1Zu98-17" value="" style="endArrow=classic;startArrow=classic;html=1;" edge="1" parent="1">
          <mxGeometry width="50" height="50" relative="1" as="geometry">
            <mxPoint x="530" y="360" as="sourcePoint" />
            <mxPoint x="630" y="300" as="targetPoint" />
            <Array as="points" />
          </mxGeometry>
        </mxCell>
        <mxCell id="Ybsti9bT6PNA4Oe1Zu98-19" value="" style="ellipse;shape=cloud;whiteSpace=wrap;html=1;fillColor=#647687;strokeColor=#314354;fontColor=#ffffff;" vertex="1" parent="1">
          <mxGeometry x="410" y="340" width="120" height="80" as="geometry" />
        </mxCell>
        <mxCell id="Ybsti9bT6PNA4Oe1Zu98-20" value="" style="ellipse;shape=cloud;whiteSpace=wrap;html=1;fillColor=#1ba1e2;strokeColor=#006EAF;fontColor=#ffffff;" vertex="1" parent="1">
          <mxGeometry x="385" y="340" width="80" height="60" as="geometry" />
        </mxCell>
        <mxCell id="Ybsti9bT6PNA4Oe1Zu98-21" value="" style="endArrow=classic;startArrow=classic;html=1;" edge="1" parent="1">
          <mxGeometry width="50" height="50" relative="1" as="geometry">
            <mxPoint x="475" y="480" as="sourcePoint" />
            <mxPoint x="475" y="420" as="targetPoint" />
          </mxGeometry>
        </mxCell>
        <mxCell id="Ybsti9bT6PNA4Oe1Zu98-22" value="&lt;div&gt;&lt;b&gt;Internet&lt;/b&gt;&lt;/div&gt;&lt;div&gt;&lt;br&gt;&lt;/div&gt;" style="text;html=1;align=center;verticalAlign=middle;resizable=0;points=[];autosize=1;" vertex="1" parent="1">
          <mxGeometry x="450" y="390" width="60" height="30" as="geometry" />
        </mxCell>
        <mxCell id="Ybsti9bT6PNA4Oe1Zu98-60" value="" style="rounded=1;whiteSpace=wrap;html=1;absoluteArcSize=1;arcSize=14;strokeWidth=2;fillColor=#dae8fc;strokeColor=#6c8ebf;" vertex="1" parent="1">
          <mxGeometry x="200" y="480" width="590" height="620" as="geometry" />
        </mxCell>
        <mxCell id="Ybsti9bT6PNA4Oe1Zu98-61" value="" style="shape=doubleArrow;whiteSpace=wrap;html=1;fillColor=#ffe6cc;strokeColor=#d79b00;" vertex="1" parent="1">
          <mxGeometry x="425" y="530" width="100" height="60" as="geometry" />
        </mxCell>
        <mxCell id="Ybsti9bT6PNA4Oe1Zu98-62" value="" style="shape=doubleArrow;direction=south;whiteSpace=wrap;html=1;fillColor=#ffe6cc;strokeColor=#d79b00;" vertex="1" parent="1">
          <mxGeometry x="445" y="490" width="60" height="140" as="geometry" />
        </mxCell>
        <mxCell id="Ybsti9bT6PNA4Oe1Zu98-63" value="&lt;div&gt;&lt;b&gt;Route 53 - DNS 101&lt;/b&gt;&lt;/div&gt;&lt;div&gt;&lt;b&gt;&lt;br&gt;&lt;/b&gt;&lt;/div&gt;" style="text;html=1;align=center;verticalAlign=middle;resizable=0;points=[];autosize=1;" vertex="1" parent="1">
          <mxGeometry x="415" y="550" width="130" height="30" as="geometry" />
        </mxCell>
        <mxCell id="Ybsti9bT6PNA4Oe1Zu98-64" value="" style="shape=ext;double=1;whiteSpace=wrap;html=1;aspect=fixed;fillColor=#fff2cc;strokeColor=#d6b656;" vertex="1" parent="1">
          <mxGeometry x="295" y="710" width="360" height="360" as="geometry" />
        </mxCell>
        <mxCell id="Ybsti9bT6PNA4Oe1Zu98-65" value="" style="endArrow=classic;startArrow=classic;html=1;" edge="1" parent="1">
          <mxGeometry width="50" height="50" relative="1" as="geometry">
            <mxPoint x="474.5" y="730" as="sourcePoint" />
            <mxPoint x="474.5" y="650" as="targetPoint" />
            <Array as="points" />
          </mxGeometry>
        </mxCell>
        <mxCell id="Ybsti9bT6PNA4Oe1Zu98-66" value="" style="shape=orEllipse;perimeter=ellipsePerimeter;whiteSpace=wrap;html=1;backgroundOutline=1;fillColor=#dae8fc;strokeColor=#6c8ebf;" vertex="1" parent="1">
          <mxGeometry x="435" y="730" width="80" height="80" as="geometry" />
        </mxCell>
        <mxCell id="Ybsti9bT6PNA4Oe1Zu98-67" value="&lt;b&gt;Elastic Load balancer&lt;/b&gt;" style="text;html=1;align=center;verticalAlign=middle;resizable=0;points=[];autosize=1;" vertex="1" parent="1">
          <mxGeometry x="410" y="750" width="140" height="20" as="geometry" />
        </mxCell>
        <mxCell id="Ybsti9bT6PNA4Oe1Zu98-68" value="" style="endArrow=classic;html=1;" edge="1" parent="1">
          <mxGeometry width="50" height="50" relative="1" as="geometry">
            <mxPoint x="395" y="890" as="sourcePoint" />
            <mxPoint x="395" y="950" as="targetPoint" />
          </mxGeometry>
        </mxCell>
        <mxCell id="Ybsti9bT6PNA4Oe1Zu98-69" value="" style="endArrow=classic;html=1;" edge="1" parent="1">
          <mxGeometry width="50" height="50" relative="1" as="geometry">
            <mxPoint x="474.5" y="890" as="sourcePoint" />
            <mxPoint x="474.5" y="950" as="targetPoint" />
          </mxGeometry>
        </mxCell>
        <mxCell id="Ybsti9bT6PNA4Oe1Zu98-70" value="" style="endArrow=classic;html=1;" edge="1" parent="1">
          <mxGeometry width="50" height="50" relative="1" as="geometry">
            <mxPoint x="550" y="890" as="sourcePoint" />
            <mxPoint x="550" y="950" as="targetPoint" />
            <Array as="points">
              <mxPoint x="550" y="920" />
            </Array>
          </mxGeometry>
        </mxCell>
        <mxCell id="Ybsti9bT6PNA4Oe1Zu98-71" value="" style="endArrow=none;html=1;" edge="1" parent="1">
          <mxGeometry width="50" height="50" relative="1" as="geometry">
            <mxPoint x="395" y="890" as="sourcePoint" />
            <mxPoint x="555" y="890" as="targetPoint" />
          </mxGeometry>
        </mxCell>
        <mxCell id="Ybsti9bT6PNA4Oe1Zu98-72" value="" style="endArrow=classic;html=1;" edge="1" parent="1">
          <mxGeometry width="50" height="50" relative="1" as="geometry">
            <mxPoint x="474.5" y="830" as="sourcePoint" />
            <mxPoint x="474.5" y="890" as="targetPoint" />
            <Array as="points">
              <mxPoint x="474.5" y="860" />
            </Array>
          </mxGeometry>
        </mxCell>
        <mxCell id="Ybsti9bT6PNA4Oe1Zu98-73" value="EC2" style="whiteSpace=wrap;html=1;aspect=fixed;" vertex="1" parent="1">
          <mxGeometry x="365" y="950" width="60" height="60" as="geometry" />
        </mxCell>
        <mxCell id="Ybsti9bT6PNA4Oe1Zu98-74" value="EC2" style="whiteSpace=wrap;html=1;aspect=fixed;" vertex="1" parent="1">
          <mxGeometry x="445" y="950" width="60" height="60" as="geometry" />
        </mxCell>
        <mxCell id="Ybsti9bT6PNA4Oe1Zu98-75" value="EC2" style="whiteSpace=wrap;html=1;aspect=fixed;" vertex="1" parent="1">
          <mxGeometry x="530" y="950" width="60" height="60" as="geometry" />
        </mxCell>
        <mxCell id="Ybsti9bT6PNA4Oe1Zu98-76" value="&lt;div&gt;&lt;b&gt;REGION&lt;/b&gt;&lt;/div&gt;&lt;div&gt;&lt;br&gt;&lt;/div&gt;" style="text;html=1;align=center;verticalAlign=middle;resizable=0;points=[];autosize=1;" vertex="1" parent="1">
          <mxGeometry x="590" y="720" width="60" height="30" as="geometry" />
        </mxCell>
        <mxCell id="Ybsti9bT6PNA4Oe1Zu98-77" value="&lt;h2&gt;&lt;b&gt;Route 53 Connected to LoadBalancer&lt;/b&gt;&lt;/h2&gt;" style="text;html=1;align=center;verticalAlign=middle;resizable=0;points=[];autosize=1;" vertex="1" parent="1">
          <mxGeometry x="140" y="95" width="340" height="50" as="geometry" />
        </mxCell>
        <mxCell id="Ybsti9bT6PNA4Oe1Zu98-78" value="&lt;h2&gt;&lt;b&gt;Route 53 Connected to S3 Bucket via CloudFront&lt;br&gt;&lt;/b&gt;&lt;/h2&gt;" style="text;whiteSpace=wrap;html=1;" vertex="1" parent="1">
          <mxGeometry x="111" y="1220" width="350" height="60" as="geometry" />
        </mxCell>
        <mxCell id="Ybsti9bT6PNA4Oe1Zu98-79" value="" style="shape=actor;whiteSpace=wrap;html=1;fillColor=#d5e8d4;strokeColor=#82b366;" vertex="1" parent="1">
          <mxGeometry x="290" y="1380" width="40" height="60" as="geometry" />
        </mxCell>
        <mxCell id="Ybsti9bT6PNA4Oe1Zu98-80" value="" style="shape=actor;whiteSpace=wrap;html=1;fillColor=#fff2cc;strokeColor=#d6b656;" vertex="1" parent="1">
          <mxGeometry x="300" y="1410" width="40" height="50" as="geometry" />
        </mxCell>
        <mxCell id="Ybsti9bT6PNA4Oe1Zu98-81" value="" style="shape=actor;whiteSpace=wrap;html=1;fillColor=#d5e8d4;strokeColor=#82b366;" vertex="1" parent="1">
          <mxGeometry x="270" y="1400" width="40" height="60" as="geometry" />
        </mxCell>
        <mxCell id="Ybsti9bT6PNA4Oe1Zu98-82" value="" style="shape=actor;whiteSpace=wrap;html=1;fillColor=#e1d5e7;strokeColor=#9673a6;" vertex="1" parent="1">
          <mxGeometry x="650" y="1380" width="40" height="60" as="geometry" />
        </mxCell>
        <mxCell id="Ybsti9bT6PNA4Oe1Zu98-83" value="" style="shape=actor;whiteSpace=wrap;html=1;fillColor=#f8cecc;strokeColor=#b85450;" vertex="1" parent="1">
          <mxGeometry x="660" y="1410" width="40" height="50" as="geometry" />
        </mxCell>
        <mxCell id="Ybsti9bT6PNA4Oe1Zu98-84" value="" style="shape=actor;whiteSpace=wrap;html=1;fillColor=#fff2cc;strokeColor=#d6b656;" vertex="1" parent="1">
          <mxGeometry x="630" y="1400" width="40" height="60" as="geometry" />
        </mxCell>
        <mxCell id="Ybsti9bT6PNA4Oe1Zu98-85" value="" style="endArrow=classic;startArrow=classic;html=1;" edge="1" parent="1">
          <mxGeometry width="50" height="50" relative="1" as="geometry">
            <mxPoint x="430" y="1530" as="sourcePoint" />
            <mxPoint x="310" y="1470" as="targetPoint" />
          </mxGeometry>
        </mxCell>
        <mxCell id="Ybsti9bT6PNA4Oe1Zu98-86" value="" style="endArrow=classic;startArrow=classic;html=1;" edge="1" parent="1">
          <mxGeometry width="50" height="50" relative="1" as="geometry">
            <mxPoint x="540" y="1530" as="sourcePoint" />
            <mxPoint x="640" y="1470" as="targetPoint" />
            <Array as="points" />
          </mxGeometry>
        </mxCell>
        <mxCell id="Ybsti9bT6PNA4Oe1Zu98-87" value="" style="ellipse;shape=cloud;whiteSpace=wrap;html=1;fillColor=#647687;strokeColor=#314354;fontColor=#ffffff;" vertex="1" parent="1">
          <mxGeometry x="420" y="1510" width="120" height="80" as="geometry" />
        </mxCell>
        <mxCell id="Ybsti9bT6PNA4Oe1Zu98-88" value="" style="ellipse;shape=cloud;whiteSpace=wrap;html=1;fillColor=#1ba1e2;strokeColor=#006EAF;fontColor=#ffffff;" vertex="1" parent="1">
          <mxGeometry x="395" y="1510" width="80" height="60" as="geometry" />
        </mxCell>
        <mxCell id="Ybsti9bT6PNA4Oe1Zu98-89" value="" style="endArrow=classic;startArrow=classic;html=1;" edge="1" parent="1">
          <mxGeometry width="50" height="50" relative="1" as="geometry">
            <mxPoint x="485" y="1650" as="sourcePoint" />
            <mxPoint x="485" y="1590" as="targetPoint" />
          </mxGeometry>
        </mxCell>
        <mxCell id="Ybsti9bT6PNA4Oe1Zu98-90" value="&lt;div&gt;&lt;b&gt;Internet&lt;/b&gt;&lt;/div&gt;&lt;div&gt;&lt;br&gt;&lt;/div&gt;" style="text;html=1;align=center;verticalAlign=middle;resizable=0;points=[];autosize=1;" vertex="1" parent="1">
          <mxGeometry x="460" y="1560" width="60" height="30" as="geometry" />
        </mxCell>
        <mxCell id="Ybsti9bT6PNA4Oe1Zu98-91" value="" style="rounded=1;whiteSpace=wrap;html=1;absoluteArcSize=1;arcSize=14;strokeWidth=2;fillColor=#dae8fc;strokeColor=#6c8ebf;" vertex="1" parent="1">
          <mxGeometry x="210" y="1650" width="590" height="620" as="geometry" />
        </mxCell>
        <mxCell id="Ybsti9bT6PNA4Oe1Zu98-92" value="" style="shape=doubleArrow;whiteSpace=wrap;html=1;fillColor=#ffe6cc;strokeColor=#d79b00;" vertex="1" parent="1">
          <mxGeometry x="435" y="1700" width="100" height="60" as="geometry" />
        </mxCell>
        <mxCell id="Ybsti9bT6PNA4Oe1Zu98-93" value="" style="shape=doubleArrow;direction=south;whiteSpace=wrap;html=1;fillColor=#ffe6cc;strokeColor=#d79b00;" vertex="1" parent="1">
          <mxGeometry x="455" y="1660" width="60" height="140" as="geometry" />
        </mxCell>
        <mxCell id="Ybsti9bT6PNA4Oe1Zu98-94" value="&lt;div&gt;&lt;b&gt;Route 53 - DNS 101&lt;/b&gt;&lt;/div&gt;&lt;div&gt;&lt;b&gt;&lt;br&gt;&lt;/b&gt;&lt;/div&gt;" style="text;html=1;align=center;verticalAlign=middle;resizable=0;points=[];autosize=1;" vertex="1" parent="1">
          <mxGeometry x="425" y="1720" width="130" height="30" as="geometry" />
        </mxCell>
        <mxCell id="Ybsti9bT6PNA4Oe1Zu98-95" value="" style="shape=ext;double=1;whiteSpace=wrap;html=1;aspect=fixed;fillColor=#fff2cc;strokeColor=#d6b656;" vertex="1" parent="1">
          <mxGeometry x="305" y="1880" width="360" height="360" as="geometry" />
        </mxCell>
        <mxCell id="Ybsti9bT6PNA4Oe1Zu98-96" value="" style="endArrow=classic;startArrow=classic;html=1;" edge="1" parent="1">
          <mxGeometry width="50" height="50" relative="1" as="geometry">
            <mxPoint x="484.5" y="1900" as="sourcePoint" />
            <mxPoint x="484.5" y="1820" as="targetPoint" />
            <Array as="points" />
          </mxGeometry>
        </mxCell>
        <mxCell id="Ybsti9bT6PNA4Oe1Zu98-98" value="&lt;b&gt;Amazon CloudFront&lt;br&gt;&lt;/b&gt;" style="text;html=1;align=center;verticalAlign=middle;resizable=0;points=[];autosize=1;" vertex="1" parent="1">
          <mxGeometry x="365" y="1990" width="130" height="20" as="geometry" />
        </mxCell>
        <mxCell id="Ybsti9bT6PNA4Oe1Zu98-99" value="" style="endArrow=classic;html=1;" edge="1" parent="1">
          <mxGeometry width="50" height="50" relative="1" as="geometry">
            <mxPoint x="405" y="2060" as="sourcePoint" />
            <mxPoint x="405" y="2120" as="targetPoint" />
          </mxGeometry>
        </mxCell>
        <mxCell id="Ybsti9bT6PNA4Oe1Zu98-100" value="" style="endArrow=classic;html=1;" edge="1" parent="1">
          <mxGeometry width="50" height="50" relative="1" as="geometry">
            <mxPoint x="484.5" y="2060" as="sourcePoint" />
            <mxPoint x="484.5" y="2120" as="targetPoint" />
          </mxGeometry>
        </mxCell>
        <mxCell id="Ybsti9bT6PNA4Oe1Zu98-101" value="" style="endArrow=classic;html=1;" edge="1" parent="1">
          <mxGeometry width="50" height="50" relative="1" as="geometry">
            <mxPoint x="560" y="2060" as="sourcePoint" />
            <mxPoint x="560" y="2120" as="targetPoint" />
            <Array as="points">
              <mxPoint x="560" y="2090" />
            </Array>
          </mxGeometry>
        </mxCell>
        <mxCell id="Ybsti9bT6PNA4Oe1Zu98-102" value="" style="endArrow=none;html=1;" edge="1" parent="1">
          <mxGeometry width="50" height="50" relative="1" as="geometry">
            <mxPoint x="405" y="2060" as="sourcePoint" />
            <mxPoint x="565" y="2060" as="targetPoint" />
          </mxGeometry>
        </mxCell>
        <mxCell id="Ybsti9bT6PNA4Oe1Zu98-103" value="" style="endArrow=classic;html=1;" edge="1" parent="1">
          <mxGeometry width="50" height="50" relative="1" as="geometry">
            <mxPoint x="484.5" y="2000" as="sourcePoint" />
            <mxPoint x="484.5" y="2060" as="targetPoint" />
            <Array as="points">
              <mxPoint x="484.5" y="2030" />
            </Array>
          </mxGeometry>
        </mxCell>
        <mxCell id="Ybsti9bT6PNA4Oe1Zu98-107" value="&lt;div&gt;&lt;b&gt;REGION&lt;/b&gt;&lt;/div&gt;&lt;div&gt;&lt;br&gt;&lt;/div&gt;" style="text;html=1;align=center;verticalAlign=middle;resizable=0;points=[];autosize=1;" vertex="1" parent="1">
          <mxGeometry x="600" y="1890" width="60" height="30" as="geometry" />
        </mxCell>
        <mxCell id="Ybsti9bT6PNA4Oe1Zu98-108" value="" style="verticalLabelPosition=bottom;verticalAlign=top;html=1;shape=card;whiteSpace=wrap;size=20;arcSize=12;direction=south;fillColor=#f5f5f5;strokeColor=#666666;fontColor=#333333;" vertex="1" parent="1">
          <mxGeometry x="490" y="1900" width="40" height="70" as="geometry" />
        </mxCell>
        <mxCell id="Ybsti9bT6PNA4Oe1Zu98-109" value="" style="verticalLabelPosition=bottom;verticalAlign=top;html=1;shape=card;whiteSpace=wrap;size=20;arcSize=12;direction=south;fillColor=#f5f5f5;strokeColor=#666666;fontColor=#333333;" vertex="1" parent="1">
          <mxGeometry x="465" y="1910" width="40" height="70" as="geometry" />
        </mxCell>
        <mxCell id="Ybsti9bT6PNA4Oe1Zu98-110" value="" style="verticalLabelPosition=bottom;verticalAlign=top;html=1;shape=card;whiteSpace=wrap;size=20;arcSize=12;direction=south;fillColor=#f5f5f5;strokeColor=#666666;fontColor=#333333;" vertex="1" parent="1">
          <mxGeometry x="445" y="1920" width="40" height="70" as="geometry" />
        </mxCell>
        <mxCell id="Ybsti9bT6PNA4Oe1Zu98-111" value="S3 Bucket" style="strokeWidth=2;html=1;shape=mxgraph.flowchart.direct_data;whiteSpace=wrap;direction=north;" vertex="1" parent="1">
          <mxGeometry x="375" y="2120" width="60" height="100" as="geometry" />
        </mxCell>
        <mxCell id="Ybsti9bT6PNA4Oe1Zu98-112" value="S3 Bucket" style="strokeWidth=2;html=1;shape=mxgraph.flowchart.direct_data;whiteSpace=wrap;direction=north;" vertex="1" parent="1">
          <mxGeometry x="455" y="2120" width="60" height="100" as="geometry" />
        </mxCell>
        <mxCell id="Ybsti9bT6PNA4Oe1Zu98-113" value="S3 Bucket" style="strokeWidth=2;html=1;shape=mxgraph.flowchart.direct_data;whiteSpace=wrap;direction=north;" vertex="1" parent="1">
          <mxGeometry x="530" y="2120" width="60" height="100" as="geometry" />
        </mxCell>
        <mxCell id="Ybsti9bT6PNA4Oe1Zu98-114" value="&lt;div&gt;&lt;h2&gt;&lt;b&gt;LAMBDA function Usage1&lt;/b&gt;&lt;/h2&gt;&lt;/div&gt;&lt;div&gt;&lt;b&gt;&lt;br&gt;&lt;/b&gt;&lt;/div&gt;" style="text;html=1;align=center;verticalAlign=middle;resizable=0;points=[];autosize=1;" vertex="1" parent="1">
          <mxGeometry x="59" y="2370" width="240" height="60" as="geometry" />
        </mxCell>
        <mxCell id="Ybsti9bT6PNA4Oe1Zu98-115" value="" style="shape=actor;whiteSpace=wrap;html=1;fillColor=#ffe6cc;strokeColor=#d79b00;" vertex="1" parent="1">
          <mxGeometry x="160" y="2480" width="40" height="50" as="geometry" />
        </mxCell>
        <mxCell id="Ybsti9bT6PNA4Oe1Zu98-117" value="" style="html=1;shadow=0;dashed=0;align=center;verticalAlign=middle;shape=mxgraph.arrows2.quadArrow;dy=10;dx=20;notch=24;arrowHead=10;fillColor=#fff2cc;strokeColor=#d6b656;" vertex="1" parent="1">
          <mxGeometry x="280" y="2480" width="84" height="70" as="geometry" />
        </mxCell>
        <mxCell id="Ybsti9bT6PNA4Oe1Zu98-120" value="" style="verticalLabelPosition=bottom;verticalAlign=top;html=1;shape=card;whiteSpace=wrap;size=20;arcSize=12;direction=south;fillColor=#f8cecc;strokeColor=#b85450;" vertex="1" parent="1">
          <mxGeometry x="440" y="2480" width="60" height="60" as="geometry" />
        </mxCell>
        <mxCell id="Ybsti9bT6PNA4Oe1Zu98-122" value="" style="shape=cylinder3;whiteSpace=wrap;html=1;boundedLbl=1;backgroundOutline=1;size=15;fillColor=#d5e8d4;strokeColor=#82b366;" vertex="1" parent="1">
          <mxGeometry x="580" y="2470" width="60" height="80" as="geometry" />
        </mxCell>
        <mxCell id="Ybsti9bT6PNA4Oe1Zu98-123" value="" style="endArrow=classic;html=1;" edge="1" parent="1">
          <mxGeometry width="50" height="50" relative="1" as="geometry">
            <mxPoint x="210" y="2514.5" as="sourcePoint" />
            <mxPoint x="270" y="2514.5" as="targetPoint" />
            <Array as="points">
              <mxPoint x="240" y="2514.5" />
            </Array>
          </mxGeometry>
        </mxCell>
        <mxCell id="Ybsti9bT6PNA4Oe1Zu98-124" value="&lt;div&gt;&lt;b&gt;Cloudfront&lt;/b&gt;&lt;/div&gt;&lt;div&gt;&lt;b&gt;&lt;br&gt;&lt;/b&gt;&lt;/div&gt;" style="text;html=1;align=center;verticalAlign=middle;resizable=0;points=[];autosize=1;" vertex="1" parent="1">
          <mxGeometry x="425" y="2460" width="80" height="30" as="geometry" />
        </mxCell>
        <mxCell id="Ybsti9bT6PNA4Oe1Zu98-125" value="&lt;div&gt;&lt;b&gt;Route53&lt;/b&gt;&lt;/div&gt;&lt;div&gt;&lt;b&gt;&lt;br&gt;&lt;/b&gt;&lt;/div&gt;" style="text;html=1;align=center;verticalAlign=middle;resizable=0;points=[];autosize=1;" vertex="1" parent="1">
          <mxGeometry x="300" y="2460" width="60" height="30" as="geometry" />
        </mxCell>
        <mxCell id="Ybsti9bT6PNA4Oe1Zu98-126" value="&lt;b&gt;User&lt;/b&gt;" style="text;html=1;align=center;verticalAlign=middle;resizable=0;points=[];autosize=1;" vertex="1" parent="1">
          <mxGeometry x="160" y="2450" width="40" height="20" as="geometry" />
        </mxCell>
        <mxCell id="Ybsti9bT6PNA4Oe1Zu98-127" value="&lt;i&gt;sending Image&lt;/i&gt;" style="text;html=1;align=center;verticalAlign=middle;resizable=0;points=[];autosize=1;" vertex="1" parent="1">
          <mxGeometry x="200" y="2490" width="90" height="20" as="geometry" />
        </mxCell>
        <mxCell id="Ybsti9bT6PNA4Oe1Zu98-128" value="&lt;div&gt;&lt;b&gt;S3 Bucket&lt;/b&gt;&lt;/div&gt;" style="text;html=1;align=center;verticalAlign=middle;resizable=0;points=[];autosize=1;" vertex="1" parent="1">
          <mxGeometry x="575" y="2450" width="70" height="20" as="geometry" />
        </mxCell>
        <mxCell id="Ybsti9bT6PNA4Oe1Zu98-129" value="" style="endArrow=classic;html=1;" edge="1" parent="1">
          <mxGeometry width="50" height="50" relative="1" as="geometry">
            <mxPoint x="370" y="2514.5" as="sourcePoint" />
            <mxPoint x="420" y="2514.5" as="targetPoint" />
            <Array as="points">
              <mxPoint x="400" y="2514.5" />
            </Array>
          </mxGeometry>
        </mxCell>
        <mxCell id="Ybsti9bT6PNA4Oe1Zu98-130" value="" style="endArrow=classic;html=1;" edge="1" parent="1">
          <mxGeometry width="50" height="50" relative="1" as="geometry">
            <mxPoint x="515" y="2514.5" as="sourcePoint" />
            <mxPoint x="565" y="2514.5" as="targetPoint" />
            <Array as="points">
              <mxPoint x="545" y="2514.5" />
            </Array>
          </mxGeometry>
        </mxCell>
        <mxCell id="Ybsti9bT6PNA4Oe1Zu98-132" value="&lt;span style=&quot;background-color: rgb(153 , 255 , 51)&quot;&gt;&lt;b&gt;Lambda Function&lt;br&gt;&lt;/b&gt;&lt;/span&gt;&lt;div&gt;&lt;span style=&quot;background-color: rgb(153 , 255 , 51)&quot;&gt;&lt;b&gt;Triggered (Image grouped)&lt;br&gt;&lt;/b&gt;&lt;/span&gt;&lt;/div&gt;" style="text;html=1;align=center;verticalAlign=middle;resizable=0;points=[];autosize=1;" vertex="1" parent="1">
          <mxGeometry x="690" y="2610" width="170" height="30" as="geometry" />
        </mxCell>
        <mxCell id="Ybsti9bT6PNA4Oe1Zu98-133" value="&lt;div&gt;&lt;b&gt;Image stored then&lt;/b&gt;&lt;/div&gt;&lt;div&gt;&lt;b&gt;&lt;br&gt;&lt;/b&gt;&lt;/div&gt;" style="text;html=1;align=center;verticalAlign=middle;resizable=0;points=[];autosize=1;" vertex="1" parent="1">
          <mxGeometry x="635" y="2510" width="120" height="30" as="geometry" />
        </mxCell>
        <mxCell id="Ybsti9bT6PNA4Oe1Zu98-134" value="" style="endArrow=classic;html=1;strokeColor=#FF0000;" edge="1" parent="1" source="Ybsti9bT6PNA4Oe1Zu98-142" target="Ybsti9bT6PNA4Oe1Zu98-136">
          <mxGeometry width="50" height="50" relative="1" as="geometry">
            <mxPoint x="585" y="2545" as="sourcePoint" />
            <mxPoint x="525" y="2625" as="targetPoint" />
          </mxGeometry>
        </mxCell>
        <mxCell id="Ybsti9bT6PNA4Oe1Zu98-135" value="&lt;b&gt;&lt;span style=&quot;background-color: rgb(153 , 255 , 51)&quot;&gt;Triggered Another &lt;br&gt;Lambda function for cross Regional&lt;br&gt;replication of image&lt;br&gt;&lt;/span&gt;&lt;/b&gt;" style="text;html=1;align=center;verticalAlign=middle;resizable=0;points=[];autosize=1;" vertex="1" parent="1">
          <mxGeometry x="420" y="2750" width="220" height="50" as="geometry" />
        </mxCell>
        <mxCell id="Ybsti9bT6PNA4Oe1Zu98-136" value="" style="shape=cylinder3;whiteSpace=wrap;html=1;boundedLbl=1;backgroundOutline=1;size=15;fillColor=#d5e8d4;strokeColor=#82b366;" vertex="1" parent="1">
          <mxGeometry x="355" y="2770" width="60" height="80" as="geometry" />
        </mxCell>
        <mxCell id="Ybsti9bT6PNA4Oe1Zu98-139" value="" style="endArrow=classic;html=1;strokeColor=#FF0000;" edge="1" parent="1" source="Ybsti9bT6PNA4Oe1Zu98-142">
          <mxGeometry width="50" height="50" relative="1" as="geometry">
            <mxPoint x="590" y="2610" as="sourcePoint" />
            <mxPoint x="190" y="2540" as="targetPoint" />
            <Array as="points">
              <mxPoint x="590" y="2640" />
              <mxPoint x="190" y="2640" />
            </Array>
          </mxGeometry>
        </mxCell>
        <mxCell id="Ybsti9bT6PNA4Oe1Zu98-140" value="&lt;b&gt;&lt;span style=&quot;background-color: rgb(153 , 255 , 51)&quot;&gt;Triggered Lambda Function returns some content&lt;/span&gt;&lt;/b&gt;" style="text;html=1;align=center;verticalAlign=middle;resizable=0;points=[];autosize=1;" vertex="1" parent="1">
          <mxGeometry x="220" y="2620" width="300" height="20" as="geometry" />
        </mxCell>
        <mxCell id="Ybsti9bT6PNA4Oe1Zu98-142" value="" style="outlineConnect=0;dashed=0;verticalLabelPosition=bottom;verticalAlign=top;align=center;html=1;shape=mxgraph.aws3.lambda_function;fillColor=#F58534;gradientColor=none;" vertex="1" parent="1">
          <mxGeometry x="630" y="2610" width="59" height="56" as="geometry" />
        </mxCell>
        <mxCell id="Ybsti9bT6PNA4Oe1Zu98-143" value="" style="endArrow=classic;html=1;strokeColor=#FF0000;" edge="1" parent="1" source="Ybsti9bT6PNA4Oe1Zu98-142">
          <mxGeometry width="50" height="50" relative="1" as="geometry">
            <mxPoint x="590" y="2600" as="sourcePoint" />
            <mxPoint x="620" y="2560" as="targetPoint" />
          </mxGeometry>
        </mxCell>
        <mxCell id="Ybsti9bT6PNA4Oe1Zu98-144" value="&lt;div&gt;&lt;h2&gt;&lt;b&gt;LAMBDA function Usage2&lt;/b&gt;&lt;/h2&gt;&lt;/div&gt;&lt;div&gt;&lt;b&gt;&lt;br&gt;&lt;/b&gt;&lt;/div&gt;" style="text;html=1;align=center;verticalAlign=middle;resizable=0;points=[];autosize=1;" vertex="1" parent="1">
          <mxGeometry x="60" y="2875" width="240" height="60" as="geometry" />
        </mxCell>
        <mxCell id="Ybsti9bT6PNA4Oe1Zu98-146" value="" style="shape=actor;whiteSpace=wrap;html=1;fillColor=#ffe6cc;strokeColor=#d79b00;" vertex="1" parent="1">
          <mxGeometry x="150" y="2940" width="40" height="50" as="geometry" />
        </mxCell>
        <mxCell id="Ybsti9bT6PNA4Oe1Zu98-147" value="" style="shape=actor;whiteSpace=wrap;html=1;fillColor=#ffe6cc;strokeColor=#d79b00;" vertex="1" parent="1">
          <mxGeometry x="150" y="3040" width="40" height="50" as="geometry" />
        </mxCell>
        <mxCell id="Ybsti9bT6PNA4Oe1Zu98-148" value="Amazon API Gateway" style="outlineConnect=0;fontColor=#232F3E;gradientColor=none;strokeColor=#ffffff;fillColor=#232F3E;dashed=0;verticalLabelPosition=middle;verticalAlign=bottom;align=center;html=1;whiteSpace=wrap;fontSize=10;fontStyle=1;spacing=3;shape=mxgraph.aws4.productIcon;prIcon=mxgraph.aws4.api_gateway;" vertex="1" parent="1">
          <mxGeometry x="340" y="2980" width="80" height="110" as="geometry" />
        </mxCell>
        <mxCell id="Ybsti9bT6PNA4Oe1Zu98-151" value="" style="endArrow=classic;html=1;exitX=1;exitY=0.75;exitDx=0;exitDy=0;strokeColor=#66FF66;" edge="1" parent="1" source="Ybsti9bT6PNA4Oe1Zu98-146" target="Ybsti9bT6PNA4Oe1Zu98-148">
          <mxGeometry width="50" height="50" relative="1" as="geometry">
            <mxPoint x="230" y="2980" as="sourcePoint" />
            <mxPoint x="280" y="2930" as="targetPoint" />
            <Array as="points" />
          </mxGeometry>
        </mxCell>
        <mxCell id="Ybsti9bT6PNA4Oe1Zu98-152" value="" style="endArrow=classic;html=1;strokeColor=#FF0000;" edge="1" parent="1" target="Ybsti9bT6PNA4Oe1Zu98-148">
          <mxGeometry width="50" height="50" relative="1" as="geometry">
            <mxPoint x="190" y="3090" as="sourcePoint" />
            <mxPoint x="240" y="3040" as="targetPoint" />
          </mxGeometry>
        </mxCell>
        <mxCell id="Ybsti9bT6PNA4Oe1Zu98-153" value="&lt;div&gt;http request&lt;/div&gt;&lt;div&gt;&lt;br&gt;&lt;/div&gt;" style="text;html=1;align=center;verticalAlign=middle;resizable=0;points=[];autosize=1;" vertex="1" parent="1">
          <mxGeometry x="180" y="2955" width="80" height="30" as="geometry" />
        </mxCell>
        <mxCell id="Ybsti9bT6PNA4Oe1Zu98-154" value="&lt;div&gt;http request&lt;/div&gt;&lt;div&gt;&lt;br&gt;&lt;/div&gt;" style="text;html=1;align=center;verticalAlign=middle;resizable=0;points=[];autosize=1;" vertex="1" parent="1">
          <mxGeometry x="180" y="3090" width="80" height="30" as="geometry" />
        </mxCell>
        <mxCell id="Ybsti9bT6PNA4Oe1Zu98-155" value="" style="outlineConnect=0;dashed=0;verticalLabelPosition=bottom;verticalAlign=top;align=center;html=1;shape=mxgraph.aws3.lambda_function;fillColor=#F58534;gradientColor=none;" vertex="1" parent="1">
          <mxGeometry x="601" y="3020" width="59" height="56" as="geometry" />
        </mxCell>
        <mxCell id="Ybsti9bT6PNA4Oe1Zu98-156" value="" style="endArrow=classic;html=1;exitX=1;exitY=0.75;exitDx=0;exitDy=0;strokeColor=#66FF66;entryX=0.145;entryY=0.145;entryDx=0;entryDy=0;entryPerimeter=0;" edge="1" parent="1" target="Ybsti9bT6PNA4Oe1Zu98-155">
          <mxGeometry width="50" height="50" relative="1" as="geometry">
            <mxPoint x="420" y="3007" as="sourcePoint" />
            <mxPoint x="570" y="3052.3947368421054" as="targetPoint" />
            <Array as="points" />
          </mxGeometry>
        </mxCell>
        <mxCell id="Ybsti9bT6PNA4Oe1Zu98-157" value="" style="endArrow=classic;html=1;strokeColor=#66FF66;" edge="1" parent="1" target="Ybsti9bT6PNA4Oe1Zu98-148">
          <mxGeometry width="50" height="50" relative="1" as="geometry">
            <mxPoint x="600" y="3050" as="sourcePoint" />
            <mxPoint x="715" y="3085.3947368421054" as="targetPoint" />
            <Array as="points" />
          </mxGeometry>
        </mxCell>
        <mxCell id="Ybsti9bT6PNA4Oe1Zu98-158" value="" style="endArrow=classic;html=1;strokeColor=#FF0000;" edge="1" parent="1">
          <mxGeometry width="50" height="50" relative="1" as="geometry">
            <mxPoint x="422.5" y="3050" as="sourcePoint" />
            <mxPoint x="597.5" y="3057" as="targetPoint" />
          </mxGeometry>
        </mxCell>
        <mxCell id="Ybsti9bT6PNA4Oe1Zu98-159" value="" style="endArrow=classic;html=1;strokeColor=#FF0000;" edge="1" parent="1">
          <mxGeometry width="50" height="50" relative="1" as="geometry">
            <mxPoint x="600" y="3070" as="sourcePoint" />
            <mxPoint x="430" y="3060" as="targetPoint" />
          </mxGeometry>
        </mxCell>
        <mxCell id="Ybsti9bT6PNA4Oe1Zu98-160" value="&lt;div&gt;&lt;b&gt;LAMBDA function run separately and returns response&lt;/b&gt;&lt;/div&gt;&lt;div&gt;&lt;b&gt;&lt;br&gt;&lt;/b&gt; &lt;/div&gt;" style="text;html=1;align=center;verticalAlign=middle;resizable=0;points=[];autosize=1;" vertex="1" parent="1">
          <mxGeometry x="450" y="2980" width="330" height="30" as="geometry" />
        </mxCell>
      </root>
    </mxGraphModel>
  </diagram>
</mxfile>
